<svg width="298" height="151" viewBox="0 0 298 151" fill="none" xmlns="http://www.w3.org/2000/svg">
<path fill-rule="evenodd" clip-rule="evenodd" d="M0.457896 89.056C0.0738956 90.496 0.169896 91.744 0.745896 92.8C1.3219 93.568 2.2339 93.472 3.4819 92.512C4.8259 91.552 6.1219 90.448 7.3699 89.2C8.6179 87.952 9.6259 86.896 10.3939 86.032C11.2579 85.072 11.4019 84.928 10.8259 85.6C8.1379 90.688 6.1699 94.72 4.9219 97.696C3.6739 100.672 2.9059 102.976 2.6179 104.608C2.4259 106.144 2.5699 107.152 3.0499 107.632C3.6259 108.016 4.3459 108.208 5.2099 108.208C6.1699 108.208 7.2259 108.112 8.3779 107.92C9.5299 107.728 10.5859 107.728 11.5459 107.92C12.2179 108.112 12.4579 108.784 12.2659 109.936C12.0739 111.088 11.8339 112.48 11.5459 114.112C11.3539 115.744 11.3539 117.52 11.5459 119.44C11.8339 121.456 12.7939 123.376 14.4259 125.2C15.4819 126.256 16.2499 127.456 16.7299 128.8C17.2099 130.144 17.5459 131.44 17.7379 132.688C17.9299 133.936 18.1219 134.992 18.3139 135.856C18.5059 136.72 18.8899 137.248 19.4659 137.44C20.3299 137.824 21.0499 137.392 21.6259 136.144C22.2979 134.992 22.9219 133.408 23.4979 131.392C24.0739 129.472 24.6019 127.36 25.0819 125.056C25.5619 122.752 25.9939 120.64 26.3779 118.72C26.8579 116.8 27.3379 115.36 27.8179 114.4C28.3939 113.344 28.9699 113.104 29.5459 113.68C31.8499 115.984 33.6259 117.184 34.8739 117.28C36.1219 117.376 37.1779 116.992 38.0419 116.128C38.9059 115.168 39.7219 114.112 40.4899 112.96C41.3539 111.712 42.5059 110.992 43.9459 110.8C47.4019 110.608 49.9939 109.408 51.7219 107.2C53.4499 104.992 54.6019 102.688 55.1779 100.288C55.7539 97.792 55.8499 95.728 55.4659 94.096C55.1779 92.368 54.6979 91.936 54.0259 92.8C51.5299 95.296 49.5139 96.976 47.9779 97.84C46.5379 98.704 45.3859 99.04 44.5219 98.848C43.6579 98.656 43.0339 98.08 42.6499 97.12C42.2659 96.16 41.9299 95.2 41.6419 94.24C41.4499 93.28 41.1619 92.416 40.7779 91.648C40.3939 90.88 39.7699 90.544 38.9059 90.64L31.7059 92.08C29.8819 92.656 28.4419 93.52 27.3859 94.672C26.4259 95.824 25.5619 96.88 24.7939 97.84C24.0259 98.8 23.2579 99.52 22.4899 100C21.7219 100.384 20.7139 100.144 19.4659 99.28C18.8899 98.896 18.5059 98.176 18.3139 97.12C18.1219 95.968 18.1699 94.384 18.4579 92.368C18.8419 90.256 19.5619 87.664 20.6179 84.592C21.6739 81.424 23.2099 77.68 25.2259 73.36C23.3059 70.576 22.1059 68.128 21.6259 66.016C21.2419 63.904 21.2899 61.984 21.7699 60.256C22.2499 58.432 23.0179 56.752 24.0739 55.216C25.2259 53.68 26.4259 52.144 27.6739 50.608C29.0179 49.072 30.2659 47.488 31.4179 45.856C32.5699 44.128 33.3859 42.256 33.8659 40.24C34.2499 39.568 34.4419 38.752 34.4419 37.792V35.056C34.4419 34.192 34.4899 33.472 34.5859 32.896C34.7779 32.224 35.2579 31.792 36.0259 31.6C37.8499 30.544 40.0579 29.92 42.6499 29.728C45.2419 29.44 47.6419 29.104 49.8499 28.72C52.1539 28.336 53.9299 27.664 55.1779 26.704C56.5219 25.744 56.8579 24.016 56.1859 21.52C55.6099 20.272 54.4579 19.312 52.7299 18.64C51.0979 17.872 49.3219 17.248 47.4019 16.768C45.1939 16.288 42.8419 15.952 40.3459 15.76C40.3459 14.704 39.9139 13.84 39.0499 13.168C38.2819 12.496 37.5139 12.16 36.7459 12.16C35.4979 12.16 34.1059 12.544 32.5699 13.312C31.0339 14.08 29.5939 15.184 28.2499 16.624C26.9059 18.064 25.7539 19.84 24.7939 21.952C23.8339 23.968 23.2579 26.224 23.0659 28.72C20.3779 29.488 18.0259 30.832 16.0099 32.752C13.9939 34.576 12.3619 36.784 11.1139 39.376C9.9619 41.968 9.2899 44.848 9.0979 48.016C8.9059 51.088 9.2419 54.256 10.1059 57.52C10.6819 59.92 10.7779 62.32 10.3939 64.72C10.0099 67.024 9.3379 69.328 8.3779 71.632C7.5139 73.84 6.5059 76 5.3539 78.112C4.2979 80.224 3.2899 82.192 2.3299 84.016C1.4659 85.84 0.841896 87.52 0.457896 89.056ZM121.088 102.448L126.848 124.048L127.568 141.328C128.912 145.168 130.016 147.712 130.88 148.96C131.84 150.304 132.656 150.832 133.328 150.544C134 150.256 134.576 149.392 135.056 147.952C135.536 146.608 136.016 145.168 136.496 143.632C136.976 142.192 137.456 140.896 137.936 139.744C138.416 138.688 139.04 138.256 139.808 138.448C140.48 132.976 140.768 128.032 140.672 123.616C140.672 121.792 140.528 119.968 140.24 118.144C140.048 116.32 139.664 114.688 139.088 113.248C138.608 111.808 137.936 110.656 137.072 109.792C136.304 108.832 135.296 108.304 134.048 108.208C131.648 108.208 130.256 107.68 129.872 106.624C129.584 105.472 129.68 104.224 130.16 102.88C130.736 101.248 131.792 99.424 133.328 97.408C134.576 96.352 135.872 95.248 137.216 94.096C138.656 92.944 139.712 91.648 140.384 90.208C141.152 88.768 141.344 87.136 140.96 85.312C140.576 83.392 139.232 81.184 136.928 78.688C138.752 74.56 140.384 70.624 141.824 66.88C143.264 63.136 144.416 59.824 145.28 56.944C146.24 53.968 146.816 51.568 147.008 49.744C147.2 47.824 146.96 46.672 146.288 46.288L139.088 57.088C139.088 56.512 139.232 55.6 139.52 54.352C139.808 53.008 140.096 51.568 140.384 50.032C140.768 48.496 141.056 47.008 141.248 45.568C141.44 44.032 141.44 42.832 141.248 41.968C141.056 40.72 140.72 39.76 140.24 39.088C139.856 38.416 139.424 37.792 138.944 37.216C138.56 36.64 138.272 35.968 138.08 35.2C137.888 34.432 137.984 33.328 138.368 31.888C139.232 28.144 139.52 24.784 139.232 21.808C139.04 18.736 138.512 16.144 137.648 14.032C136.784 11.92 135.68 10.288 134.336 9.13599C132.992 7.984 131.696 7.408 130.448 7.408C128.432 7.216 126.464 7.59999 124.544 8.55999C122.624 9.51999 121.136 10.912 120.08 12.736C119.12 14.464 118.832 16.624 119.216 19.216C119.696 21.712 121.28 24.496 123.968 27.568C125.792 29.392 126.8 31.696 126.992 34.48C127.28 37.168 127.232 40.144 126.848 43.408C126.752 44.272 126.32 44.752 125.552 44.848C124.88 44.944 124.112 44.992 123.248 44.992C122.384 44.896 121.568 44.944 120.8 45.136C120.032 45.232 119.552 45.76 119.36 46.72C119.264 47.584 119.504 49.024 120.08 51.04C120.752 52.96 122.048 55.696 123.968 59.248C123.008 62.896 122.24 66.448 121.664 69.904C121.184 72.88 120.8 76.048 120.512 79.408C120.32 82.672 120.512 85.552 121.088 88.048C121.28 89.392 121.376 90.88 121.376 92.512C121.472 94.048 121.472 95.584 121.376 97.12C121.28 98.848 121.184 100.624 121.088 102.448ZM194.986 1.648C193.45 0.687997 191.578 0.207997 189.37 0.207997C187.162 0.207997 185.146 0.591995 183.322 1.35999C181.498 2.12799 180.394 3.42399 180.01 5.24799C177.802 5.15199 175.738 5.05599 173.818 4.96C172.186 4.864 170.506 4.864 168.778 4.96C167.05 4.96 165.754 5.05599 164.89 5.24799C164.698 5.24799 164.89 5.39199 165.466 5.68C166.042 5.968 166.522 6.4 166.906 6.976C167.386 7.456 167.482 8.128 167.194 8.992C167.002 9.76 165.994 10.672 164.17 11.728C163.69 13.072 163.69 14.08 164.17 14.752C164.65 15.328 165.418 15.76 166.474 16.048C167.626 16.24 168.97 16.24 170.506 16.048L175.402 15.472C177.13 15.184 178.81 14.896 180.442 14.608C182.17 14.224 183.706 13.984 185.05 13.888C189.754 15.424 193.45 16.672 196.138 17.632C198.826 18.592 200.746 19.408 201.898 20.08C203.05 20.656 203.578 21.232 203.482 21.808C203.482 22.384 203.05 23.104 202.186 23.968C201.418 24.736 200.362 25.744 199.018 26.992C197.77 28.24 196.474 29.872 195.13 31.888C195.322 32.08 195.514 32.56 195.706 33.328C195.994 34.096 196.282 34.96 196.57 35.92C196.858 36.784 197.098 37.6 197.29 38.368C197.578 39.136 197.818 39.616 198.01 39.808C197.242 40.864 196.57 42.16 195.994 43.696C195.514 45.232 194.986 46.624 194.41 47.872C193.93 49.12 193.45 50.08 192.97 50.752C192.586 51.424 192.106 51.376 191.53 50.608C189.994 48.976 188.65 47.92 187.498 47.44C186.442 46.96 185.482 46.864 184.618 47.152C183.85 47.44 183.13 47.968 182.458 48.736C181.882 49.504 181.258 50.272 180.586 51.04C179.914 51.712 179.194 52.288 178.426 52.768C177.658 53.152 176.746 53.152 175.69 52.768C171.562 53.344 168.682 54.208 167.05 55.36C165.514 56.416 164.89 57.52 165.178 58.672C165.466 59.824 166.57 60.88 168.49 61.84C170.41 62.8 172.81 63.376 175.69 63.568C176.746 63.568 177.946 63.76 179.29 64.144C180.634 64.528 181.978 64.816 183.322 65.008C184.762 65.2 186.154 65.152 187.498 64.864C188.938 64.48 190.282 63.568 191.53 62.128C192.202 61.456 192.778 61.696 193.258 62.848C193.834 64 194.314 65.536 194.698 67.456C195.178 69.28 195.658 71.248 196.138 73.36C196.618 75.376 197.242 76.912 198.01 77.968L195.85 80.128C197.674 82.912 198.778 85.12 199.162 86.752C199.546 88.384 199.498 89.728 199.018 90.784C198.538 91.744 197.722 92.512 196.57 93.088C195.418 93.568 194.17 94.048 192.826 94.528C191.578 94.912 190.33 95.44 189.082 96.112C187.93 96.784 187.066 97.696 186.49 98.848C186.298 99.232 186.25 99.76 186.346 100.432C186.442 101.008 186.49 101.632 186.49 102.304C186.586 102.88 186.538 103.408 186.346 103.888C186.154 104.368 185.722 104.608 185.05 104.608C183.034 104.416 180.682 103.792 177.994 102.736C175.306 101.68 172.81 100.768 170.506 100C168.202 99.232 166.378 98.944 165.034 99.136C163.69 99.232 163.402 100.336 164.17 102.448C164.65 103.504 165.754 104.608 167.482 105.76C169.21 106.912 171.034 108.016 172.954 109.072C175.162 110.224 177.514 111.376 180.01 112.528C180.586 114.16 181.786 115.504 183.61 116.56C185.53 117.52 187.498 118 189.514 118C191.53 118.096 193.306 117.616 194.842 116.56C196.474 115.408 197.29 113.584 197.29 111.088C199.978 111.856 202.33 112.048 204.346 111.664C206.362 111.184 207.946 110.32 209.098 109.072C210.346 107.824 211.066 106.192 211.258 104.176C211.45 102.16 211.114 99.904 210.25 97.408C209.674 95.488 209.578 93.808 209.962 92.368C210.346 90.832 210.97 89.488 211.834 88.336C212.794 87.184 213.802 86.128 214.858 85.168C216.01 84.208 217.018 83.296 217.882 82.432C218.842 81.568 219.514 80.752 219.898 79.984C220.282 79.12 220.186 78.208 219.61 77.248C219.226 76.576 218.698 76.096 218.026 75.808C217.354 75.424 216.73 75.136 216.154 74.944L214.858 74.512C214.57 74.32 214.714 74.032 215.29 73.648C214.234 70.576 213.61 68.416 213.418 67.168C213.226 65.92 213.082 65.104 212.986 64.72C212.89 64.24 212.65 63.904 212.266 63.712C211.882 63.52 210.97 62.992 209.53 62.128C209.53 61.744 209.386 61.264 209.098 60.688C208.906 60.112 208.81 59.632 208.81 59.248C208.81 58.48 208.906 57.904 209.098 57.52C209.386 57.04 209.53 56.416 209.53 55.648C208.954 53.152 208.426 51.232 207.946 49.888C207.562 48.448 207.37 47.152 207.37 46C207.466 44.848 207.85 43.648 208.522 42.4C209.29 41.056 210.586 39.232 212.41 36.928C213.274 35.488 213.466 34.384 212.986 33.616C212.602 32.752 212.026 31.84 211.258 30.88C210.586 29.92 210.01 28.72 209.53 27.28C209.146 25.84 209.386 23.776 210.25 21.088C211.114 18.4 211.45 16 211.258 13.888C211.066 11.776 210.346 10.096 209.098 8.848C207.946 7.504 206.362 6.64 204.346 6.256C202.33 5.872 199.978 6.01599 197.29 6.68799C197.29 4.19199 196.522 2.512 194.986 1.648ZM259.093 147.52C260.725 146.08 263.029 143.056 266.005 138.448C267.445 136.624 268.261 134.848 268.453 133.12C268.741 131.488 268.789 129.904 268.597 128.368C268.501 126.928 268.405 125.584 268.309 124.336C268.309 123.088 268.741 122.032 269.605 121.168C272.677 118.384 274.789 116.32 275.941 114.976C277.189 113.536 277.813 112.48 277.813 111.808C277.813 111.136 277.429 110.656 276.661 110.368C275.893 109.984 275.125 109.504 274.357 108.928C273.685 108.352 273.205 107.488 272.917 106.336C272.629 105.184 272.965 103.408 273.925 101.008C274.117 98.704 274.261 96.592 274.357 94.672C274.549 92.752 274.789 91.024 275.077 89.488C275.461 87.856 275.989 86.416 276.661 85.168C277.429 83.824 278.437 82.624 279.685 81.568C281.797 79.744 283.333 78.112 284.293 76.672C285.253 75.136 285.829 73.696 286.021 72.352C286.309 71.008 286.309 69.712 286.021 68.464C285.829 67.12 285.637 65.728 285.445 64.288C285.253 62.848 285.349 61.312 285.733 59.68C286.117 57.952 286.549 56.224 287.029 54.496C287.605 52.768 288.133 51.04 288.613 49.312C289.189 47.488 289.573 45.76 289.765 44.128C293.701 40 296.053 36.928 296.821 34.912C297.589 32.896 297.205 31.648 295.669 31.168C294.229 30.592 291.877 30.688 288.613 31.456C285.349 32.224 281.653 33.328 277.525 34.768C275.413 33.232 273.301 32.128 271.189 31.456C269.365 30.88 267.397 30.688 265.285 30.88C263.269 31.072 261.349 32.128 259.525 34.048C258.277 32.416 256.933 30.976 255.493 29.728C254.053 28.384 252.661 27.568 251.317 27.28C250.069 26.992 248.917 27.328 247.861 28.288C246.901 29.248 246.229 31.168 245.845 34.048C243.157 36.064 241.429 37.552 240.661 38.512C239.989 39.376 239.893 40.144 240.373 40.816C240.853 41.488 241.765 42.256 243.109 43.12C244.453 43.888 245.845 45.184 247.285 47.008C249.397 50.08 251.125 51.808 252.469 52.192C253.909 52.576 255.205 52.384 256.357 51.616C257.509 50.752 258.613 49.696 259.669 48.448C260.821 47.2 262.213 46.48 263.845 46.288C264.229 46.48 265.045 46.528 266.293 46.432C267.637 46.336 268.933 46.336 270.181 46.432C271.525 46.432 272.629 46.624 273.493 47.008C274.357 47.392 274.501 48.112 273.925 49.168C273.061 50.992 272.629 52.576 272.629 53.92C272.725 55.168 272.917 56.464 273.205 57.808C273.589 59.056 273.877 60.448 274.069 61.984C274.357 63.424 274.261 65.248 273.781 67.456C273.397 69.664 272.485 72.304 271.045 75.376C269.701 78.448 267.541 82.192 264.565 86.608C263.317 88.432 261.973 90.304 260.533 92.224C259.189 94.048 257.989 95.872 256.933 97.696C255.877 99.52 255.109 101.344 254.629 103.168C254.245 104.896 254.437 106.576 255.205 108.208C255.397 108.592 255.733 108.448 256.213 107.776C256.693 107.008 257.173 106.192 257.653 105.328C258.133 104.464 258.565 103.696 258.949 103.024C259.333 102.256 259.525 102.064 259.525 102.448C260.197 102.832 260.437 104.128 260.245 106.336C260.149 108.544 259.813 111.28 259.237 114.544C258.757 117.712 258.181 121.12 257.509 124.768C256.837 128.512 256.261 132.016 255.781 135.28C255.301 138.64 254.965 141.52 254.773 143.92C254.677 146.416 254.965 148 255.637 148.672C256.309 149.44 257.461 149.056 259.093 147.52ZM62.4631 68.5C60.1297 71.5 56.1631 78.1 58.9631 80.5C61.7631 82.9 72.7964 79.5 77.9631 77.5C80.1298 80.1666 85.4631 85.5 89.4631 85.5C93.4631 85.5 93.7964 83.5 93.4631 82.5C95.4631 84.8333 100.563 89.5 104.963 89.5C109.363 89.5 107.796 84.8333 106.463 82.5C107.963 81.5 110.963 79.1 110.963 77.5C110.963 75.9 106.963 74.1666 104.963 73.5C104.13 72.8333 102.363 71.2 101.963 70C101.799 69.5068 101.202 69.6082 100.244 69.771C98.2876 70.1033 94.8259 70.6915 90.4631 67C86.5229 63.666 86.5444 63.6621 87.8737 63.4208C88.2987 63.3437 88.8574 63.2422 89.4631 63L82.9631 59C82.9631 59 81.1124 63.351 76.4631 64C71.1355 64.7436 67.7859 64.1683 62.9112 63.3311C62.2891 63.2243 61.6422 63.1132 60.9631 63C60.7205 65.213 62.4631 68.5 62.4631 68.5Z" fill="black"/>
</svg>
